<?xml version="1.0" standalone="no"?>
<!DOCTYPE svg PUBLIC "-//W3C//DTD SVG 20010904//EN"
 "http://www.w3.org/TR/2001/REC-SVG-20010904/DTD/svg10.dtd">
<svg version="1.0" xmlns="http://www.w3.org/2000/svg"
 width="700.000000pt" height="700.000000pt" viewBox="0 0 700.000000 700.000000"
 preserveAspectRatio="xMidYMid meet">
<metadata>
Created by potrace 1.14, written by Peter Selinger 2001-2017
</metadata>
<g transform="translate(0.000000,700.000000) scale(0.100000,-0.100000)"
fill="#000000" stroke="none">
<path d="M1770 6551 c-31 -10 -100 -46 -120 -63 -8 -7 -139 -150 -290 -318
-151 -168 -277 -307 -280 -310 -3 -3 -41 -45 -85 -94 -44 -50 -92 -103 -106
-119 l-26 -29 -172 171 c-104 102 -189 178 -214 190 -146 71 -320 29 -412 -98
-46 -63 -65 -127 -61 -208 5 -115 19 -133 369 -482 174 -173 334 -326 358
-340 35 -21 56 -25 128 -26 132 -3 199 27 290 129 20 22 45 50 57 63 12 12 52
57 90 100 38 42 76 84 84 93 8 9 44 49 80 90 36 41 72 81 80 90 30 32 169 186
187 206 16 19 116 131 168 188 11 12 57 63 103 114 148 161 175 206 188 304 6
50 -15 147 -41 193 -62 105 -149 157 -270 161 -44 2 -91 0 -105 -5z"/>
<path d="M3391 6109 c-191 -53 -312 -201 -326 -398 -14 -204 125 -393 329
-447 42 -11 329 -14 1633 -14 1060 0 1598 3 1629 10 159 36 298 175 334 333 5
23 7 78 5 123 -4 100 -40 185 -110 263 -57 62 -97 89 -180 121 l-60 23 -1599
1 c-1425 1 -1604 -1 -1655 -15z"/>
<path d="M1801 4368 c-104 -18 -157 -62 -368 -304 -17 -20 -134 -150 -178
-198 -11 -12 -56 -62 -100 -111 -44 -49 -105 -117 -135 -150 -30 -33 -78 -86
-105 -117 l-51 -57 -171 170 c-186 184 -234 216 -335 225 -250 20 -433 -238
-325 -459 20 -40 97 -123 344 -368 175 -174 332 -323 348 -332 51 -27 87 -34
160 -31 87 4 89 4 146 32 51 25 60 34 319 322 52 58 99 110 105 116 5 6 39 43
75 84 36 40 72 80 80 89 9 9 52 57 95 106 44 50 87 97 95 105 8 8 51 56 95
105 43 50 86 97 95 106 45 47 137 156 153 182 10 16 25 55 33 87 22 87 10 165
-38 245 -69 115 -204 177 -337 153z"/>
<path d="M3396 3923 c-79 -18 -152 -61 -213 -126 -62 -65 -90 -119 -108 -204
-28 -135 7 -282 92 -378 53 -60 155 -123 229 -141 16 -4 744 -8 1619 -9 1323
-2 1600 0 1649 12 154 36 273 151 319 310 17 56 16 184 -1 238 -41 132 -144
238 -282 292 -42 16 -157 17 -1645 18 -1310 1 -1611 -1 -1659 -12z"/>
<path d="M489 1945 c-99 -29 -120 -39 -182 -78 -129 -84 -213 -189 -272 -342
-37 -96 -42 -283 -10 -390 56 -190 191 -346 366 -422 106 -47 251 -67 354 -50
79 13 98 18 159 43 173 70 314 221 376 404 34 100 39 262 11 365 -67 245 -252
421 -502 481 -13 3 -69 7 -125 9 -80 2 -115 -2 -175 -20z"/>
<path d="M2530 1739 c-108 -21 -240 -121 -290 -219 -134 -262 14 -576 298
-634 86 -18 4069 -15 4132 3 82 23 148 62 203 120 95 100 134 210 122 344 -3
39 -8 74 -11 79 -3 4 -7 16 -9 26 -4 23 -57 112 -87 147 -41 47 -117 97 -186
121 l-67 23 -2030 -1 c-1118 0 -2050 -4 -2075 -9z"/>
</g>
</svg>
